<?xml version="1.0" encoding="UTF-8"?>
<svg version="1.1" viewBox="0 0 1280 1280" width="1280" height="1280" xmlns="http://www.w3.org/2000/svg">
<path transform="translate(0)" d="m0 0h1280v1280h-1280z" fill="#567C70"/>
<path transform="translate(1010,131)" d="m0 0 6 1 3 6 2 16v18l-3 32-8 57-7 44-8 47-5 26-6 26-6 27-8 34 4 2 12 11 17 17 11 14 12 18 13 24 9 20 5 22 1 14-10 2-50 6h-6l1 7v14l-2 14-4 10-3 2-5-8-5-15-3-17v-4l-56 7-18 2h-7l7 19 9 17 8 11 9 10 8 8 15 10 16 7 13 3h20l12-3 14-7 11-9 8-9 8-13 6-15 2-8h1v14l-3 23-6 29-7 24-7 20-6 15-6 13-1 4-7 3 39-12 28-7 25-5 35-4h8l-1 24-36 2-31 4-23 4-47 11 19-4 29-6 33-5 33-3h24l3 19-4 1h-22l-41 3-37 5-45 7 18-2 52-7 35-3 21-1h24l8 21 12 25 3 9-1 4-30-11-35-10-27-6-35-5-14-1-39-1-23 1h20l-6 9-12 16-6 7-10-1-28-5h-5l-3 12-1 21 13 2 2 2-9 9-8 7-16 13-18 12-16 9-17 8-16 6-22 6-27 5-23 3-12 1h-58l-28-3-24-4v64l3 24 6 27 10 30 13 31 18 44 11 29 12 36 6 19v1h-533l1-5 2-6 1-1 1-7 2-5 2-9 20-70 13-49 10-46 8-43 9-57 3-3h-2l3-23 6-44 1-2 1-14 5-42 17-6 29-9 9-2-11 2-38 12-6 2 10-101 7-62 9-68 10-65 7-40 10-50 13-56 16-63 16-57 13-43 14-41 11-28 11-24 7-11 4-5 7-4h7l10 4 10 9 7 7 11 14 10 13 9 12 14 20 24 36 14 22 17 28 17 29 14 23 8 12 6 7 5 2 20 4 55 8 24 3 30 2h19l14-2 14-5 6-4 10-14 15-22 14-19 22-28 11-13 11-14 9-10 9-11 13-15 12-14 11-12 9-11 7-7 7-8 13-14 7-8 8-8 7-8 10-9z" fill="#272521"/>
<path transform="translate(1260)" d="m0 0h20v1280h-563l-3-8-13-40-15-40-15-36-12-29-9-24-7-25-4-22-2-17v-55l1-9 10 1 31 4 11 1h58l29-3 28-5 20-5 18-6 18-8 17-9 15-10 16-12 12-11 8-7 2-2-6-2-8-2v-21l3-12 1-1 12 1 27 5 5-1 12-15 10-14h-40v-1l15-1 32-1 36 1 22 2 32 5 30 7 33 10 24 9-2-9-12-26-8-20v-3l-60 3-44 5-42 6h-7l3-2 65-10 27-3 33-2h23l-2-14v-5l-36 2-36 4-34 6-30 7h-5l3-2 38-9 26-5 27-4 24-2h22v-16l1-8-43 5-29 6-31 8-35 11-3-1 19-7 33-10 32-8 23-4 31-3 3-1 4-24 11-44 3-23v-30l-3-21-5-20-7-19-9-19-12-22-8-18-5-12-6-19-5-21-2-14v-37l4-20 7-19 8-16 8-14 7-11 26-36 8-13 7-14 3-8 3-21-2-24-4-17-3-12-3-8-11-31-12-31-5-18-3-14v-7l6-3v4l1-2 3 1 2 2 4 1 1 2 6-2 2 5 2 3 5-1-1 6h2v-4h2l-1-5-4-1 1-3 4 1 2 2 1 4 7 24 7 16 14 25 4 9 5 11 7 19 6 25 3 22v23l-4 26-8 26-11 24-12 20-14 19-14 20-6 10-8 16-8 19-5 21-1 9v13l3 19 6 20 11 24 11 22 10 26 5 19 4 27v35l-4 25-7 26-7 24-1 4h14l33 3 25 4v1l-14-1-32-3-27-1-2 25h14l37 5 31 6 3 2-9-1-33-5-42-4v19h12l5 1v2h-16l5 22 2 13 1 12v10l-1 3 9 3 15 8v2l4 2 7 2 3 1-1 1 5 4h4l5 3-1 2 3 1 1 2 7 3 9 4 2-1v-2l4 1v2l4 2 3 2-1 5 5 1v3l2 1 1-19v-101l-2-1h2l-1-353v-321-2-87l-1-21-3-17z" fill="#567D70"/>
<path transform="translate(433,147)" d="m0 0h6l8 6 9 10 10 14 11 17 16 28 20 39 19 39 13 28 17 36 13 29v2l-25 9-4 2-4 1-7 4-4-2-11-10-15-10-21-11-30-11-23-7h-2l45 16 21 9 14 8 13 9 10 9-4 3-22 12-21 13-16 11-14 11-13 11-8 7-23 23-9 11-11 13-11 14-12 15-2-2-1-12v-56l2-35 4-42 7-54 7-43 11-53 15-60 8-26 7-16 4-6z" fill="#ED7310"/>
<path transform="translate(1143,81)" d="m0 0h2v4l1-2 3 1 2 2 4 1 1 2 6-2 2 5 2 3 5-1-1 6h2v-4h2l-1-5-4-1 1-3 4 1 2 2 1 4 7 24 7 16 14 25 4 9 5 11 7 19 6 25 3 22v23l-4 26-8 26-11 24-12 20-14 19-14 20-6 10-8 16-8 19-5 21-1 9v13l3 19 6 20 11 24 11 22 10 26 5 19 4 27v35l-4 25-7 26-7 24-1 4h14l33 3 25 4v1l-14-1-32-3-27-1-2 25h14l37 5 31 6 3 2-9-1-33-5-42-4v19h12l5 1v2h-16l5 22 2 13 1 12v10l-1 3 6 2-3 1-2-1-4 13-1-3v-12l-24-9-40-12-33-7-29-4-25-2h-74v-1l15-1 32-1 36 1 22 2 32 5 30 7 33 10 24 9-2-9-12-26-8-20v-3l-60 3-44 5-42 6h-7l3-2 65-10 27-3 33-2h23l-2-14v-5l-36 2-36 4-34 6-30 7h-5l3-2 38-9 26-5 27-4 24-2h22v-16l1-8-43 5-29 6-31 8-35 11-3-1 19-7 33-10 32-8 23-4 31-3 3-1 4-24 11-44 3-23v-30l-3-21-5-20-7-19-9-19-12-22-8-18-5-12-6-19-5-21-2-14v-37l4-20 7-19 8-16 8-14 7-11 26-36 8-13 7-14 3-8 3-21-2-24-4-17-3-12-3-8-11-31-12-31-5-18-3-14v-7l2-1z" fill="#E6B65B"/>
<path transform="translate(84,764)" d="m0 0 9 1 12 6 10 8 10 10 8 11 9 15 11 23 9 25 8 30 6 33 4 31 2 24 1 22v40l-2 32-4 36-7 44-11 55-5 27-2 11v12h-2l2 2 6 4 4 8v4l-4 2h-149l2-5-4-5v-3h-2v-2h3l1-2h-3v-4l-4 1v-3l5-2 1-8 5-1-1 4-2 6h5l-1 3-4 1v2h3v6l-1 2h5 4l1-1v-3h2v-4l4-1h-2v-2h-3l-1-2-2 1-1-3 3-1v-6l-6-1 2-5 2-1v-3l5-2 4 1-1 5h3l1 9h3v3l2 1v3l-2 1h3l2 4 6 2 2-1h-4l1-5h4v2h7l1-2 6 1h1v-2h3v3l8-2 1 2h-3l1 4v-3h4l2-10 3-6 2-1-1-3 2-10 1-2h2l-1-5 7-28 8-34 4 4 3-1-1-3 2-3 2 3-2-6h3l1-2-6 2-3-1-1 3v-9l3-13 4-23 1-5 7-46 6-51 3-38 1-20v-41l-2-32-4-30-4-19-7-21-8-16-7-10-8-9-10-5-3-1 2-4z" fill="#2D2B24"/>
<path transform="translate(779,620)" d="m0 0 5 1-1 6-8 17-11 18-11 14-13 14-14 11-13 9-21 11-16 6-23 6-12 2-11 1h-29l-22-3-23-6-20-8-17-9-17-12-10-9-8-7-10-11-11-15-9-15-5-11 4-1 96-3h22l4 23 6 17 5 8 4-5 5-15 2-12 1-17 22-1z" fill="#EFA40A"/>
<path transform="translate(1011,136)" d="m0 0h2l2 6 1 10v14l-1 20-6 48-10 63-8 48-6 30-8 36-5 18-8 29-5-1-16-10-22-12-10-5-8-3v-2l-4 1-3-1 2-5 11-13 17-17 3-2-1-1-11 9-13 14-10 13h-3l1-5 11-24 9-20h-2l-2 6-11 22-8 18-4 1-19-6-24-5 3-10 12-29 15-31 12-22 15-25 14-23 11-17 26-39 16-23 13-18 13-17 8-10h2l2-4z" fill="#EC7410"/>
<path transform="translate(1260)" d="m0 0h20v1280h-12v-110l-1-152v-24l-1-104v-83l-2-1h2l-1-353v-321-2-87l-1-21-3-17z" fill="#F4D59A"/>
<path transform="translate(483,817)" d="m0 0h66l51 3 48 5 47 6 26 3v1h-70l-53 2-41 3-39 4-48 7-48 9-37 9-39 11-41 14-25 10-14 6h-2l1-14 5-42 17-6 29-9 28-7 41-7 36-4 43-3z" fill="#272521"/>
<path transform="translate(1169,765)" d="m0 0h28l31 3 22 4v3l7 1 3 1 1-3 3 1 2 3 1 25-1 4 1 19v82l-1 20-5-3 1-2-6-1 2-2v-3l-8-5v-2h-2l1 3-3 1-9-4-8-4v-2l-5-1 2-2-7-4-1 2-4-3-3-3-8-2-4-5-23-11v-13l-2-19-5-25v-3h16v-2l-17-1-1-7v-13l35 3 36 5 6 1-32-6-31-4-14-1v-17z" fill="#567C70"/>
<path transform="translate(1052,607)" d="m0 0h2l1 5v20l-2 16-5 16-8 16-9 11-11 10-12 7-12 4-5 1h-20l-16-4-16-8-13-9-15-15-10-14-10-19-5-15v-2l75-9h6l5 25 5 13 3 5 3-3 4-13 1-9v-21z" fill="#EFA40A"/>
<path transform="translate(921,865)" d="m0 0 12 1 137 25-4 17-2 20-13-2-132-26-2-1v-21l3-12z" fill="#F4D69B"/>
<path transform="translate(1125,814)" d="m0 0h24l8 21 12 25 3 9-1 4-30-11-35-10-27-6-35-5-14-1-49-1v-1h9l2-5 1-2-24 2 2-2 19-3 20-2 59-8 35-3z" fill="#567C70"/>
<path transform="translate(861,677)" d="m0 0 6 1 1 2-5 1 2 2h2v6l-3 1-1 5 7-2 3-1v2h-2v2l6 2 3-1 1 2h3l10 19 15 28 16 27 3 5v3l-13-1h-29l-12 1-4-2-6-2-2-1v-2l-2-1h4l-2-5-2-1v2h-2v-2l-4-2h7v-2l-6 1 1-2h4l-2-2-6-1 1-3 2-2-4-2 3-6 5-1-1-5h-2v-4l-6 2v-3l2-1v-2l1-1 2-1v-2h-2l-1-9 1-2h-3v-2l1-1 2-3 1-4-4-1h5l-4-2v-2l5 1-2-4h3l2-3-3-3 3-5-5-1 1-4-1-3h3v-2z" fill="#EB7511"/>
<path transform="translate(23,1236)" d="m0 0 6 1-1 5h3l1 9h3v3l2 1v3l-2 1h3l2 4 6 2 2-1h-4l1-5h4v2h7l1-2 6 1h1v-2h3v3l8-2 1 2h-3l1 4v-3h4l1-6 3 1h-2v3h5l4-2h5l3 5v2l3-1-4-4h5v-2h3v2h3l-1 5 4-1-2-2 4-1v3l3-1-6-4v-2l3-2 2-1 1-3h2v2l7 1v-2h5l2-2 3 6 2 3v3l4 1-1 5 3 1v2l3 1v-6h2v-2l-5-2v-6l1-2-2-1 3-1 4 1-1 5 3 7-1 4h3v-7l6 4 4 8v4l-4 2h-149l2-5-4-5v-3h-2v-2h3l1-2h-3v-4l-4 1v-3l5-2 1-8 5-1-1 4-2 6h5l-1 3-4 1v2h3v6l-1 2h5 4l1-1v-3h2v-4l4-1h-2v-2h-3l-1-2-2 1-1-3 3-1v-6l-6-1 2-5 2-1v-3z" fill="#63441F"/>
<path transform="translate(1261,13)" d="m0 0 3 1 1 8 1 22v26l-1 26h-1l-1-11-5 1v2h-2l-1 4-8 7h-2l-1 3-2-2 4-2v-2h2l2-5h2v-2l5-5 3-4-3-1v2l-5-1-6 4-3 3h-2v-2l-9 1v-2l-4 1-18 1-2-5h-5l-4-4v2l-3 1-3-3-11-4 2-4v-2l4-1-3-2-1-4 2-2 1 2-1 2h2v-2l2-1-2-2 5 1h2l2-2 1-5 5 1v-3h5l3-1v-2l5 1 1 2 7-2 1-2 5-1 3-2 7-1 6-3h3v-2l6-1 2 2h4l2-2-1-17z" fill="#517266"/>
<path transform="translate(1169,765)" d="m0 0h28l31 3 22 4v3l7 1 3 1 1-3 3 1 2 3 1 25-1 3-17-4-37-7-31-4-14-1v-17z" fill="#557C70"/>
<path transform="translate(1137,765)" d="m0 0h8l-1 24-36 2-31 4-23 4-48 11 2-6 5-11 3-2 37-11 33-8 23-4z" fill="#557C70"/>
<path transform="translate(1121,792)" d="m0 0h24l3 19-4 1h-22l-41 3-37 5-45 7-3-1 7-12h-4l-9 1 3-2 7-2 13-2 36-8 39-6z" fill="#567C70"/>
<path transform="translate(1249,918)" d="m0 0 4 2 13 10 1 2 1 69v77l-1 14-1 1h1v11l-2 1-2-1v-8h-2l-1 3-1-2-2 3h-4l-3-1-1-1v-11l2-8h5l1-2h1v-2h-2v-2l-7-3 2-6-2-1 5-2 1-2h-3v-4l3-1-1-4-5-4-3-1-2-7 1-4-2-4 1-2-2-1 5-3 4-8 4-1 1 2 2-1v2l2-1-1-2 2-2h-2v-2l-2-1-3-2-5-1-5 1v-2h-4l-1-6 4-1 1-3 2 1-2 3 5-2h3l2-1-2-1v-2h-2v2h-2l1-4-6-1-1-4h6l1 1 2-2 4 1 2-2h6l1 4-1 2h2l-1-10-2-4v-3h-4v-2l-8 2v-2h-2l-1 2-3-1v-2l-3 1-2-1-1-4 4-2h4v-4l2 1v2l2-2v3h8l-1-2 4-2 1-1 1-5-3-1-2-7 1-5 1-3 3-3v-3h-2v-2h2v-2l-8 1v2l-5 1-3-1-1-6 3-1h2l1-3-3-2z" fill="#517367"/>
<path transform="translate(1145,903)" d="m0 0 10 1 1 2 6-1 5-1 1 4h6l2 4v3l6 1 3 4 2 7v5l-3 1-2 6-3 6-3 2h-7v3l-3-1v-4l-2 1v3h-11l-5-2h-8l-2-1v-4h-7l-6-7-1-3v-13l4-7 7-6z" fill="#3A2F20"/>
<path transform="translate(486,815)" d="m0 0h76l46 3 45 5 83 11v2l20 1 44 4 3 2h-13l-55-4-20-1h-71l-52 2-38 3-46 5-40 6-43 8-39 9-49 14-38 13-18 7-3-1 14-6 36-13 25-8 39-11 40-9 50-9 36-5 39-4 41-3 53-2h61l-64-8-48-5-51-3h-66l-49 3-31 3-24 3-18 3-1-2 15-3 29-4 32-3z" fill="#E9AD4C"/>
<path transform="translate(894,787)" d="m0 0h21l16 4 6 4 2 3-1 7-8 7-6 1-1-7-1-1h-7l-6 3-3 4v6l4 7-2 7h-2v2l-5 2h-8l-5-2-2-2v-7l6-7 1-6-2-4-6-3h-9l-1 1-1 9-9-3-9-6-1-1v-6l8-5 17-5z" fill="#ED7610"/>
<path transform="translate(1167,792)" d="m0 0 35 3 36 5 10 2h7l9 3v1l-3 1 1 3 3 1-9 3v-2h-3l-1 5-1 2-7 1h-9l-18-2h-21l-10-1v13h-1v-13h-6l-1-2h7v-2l-17-1-1-7z" fill="#557B6F"/>
<path transform="translate(1085,894)" d="m0 0 30 5 25 5-3 2-8 6-4 7v13l3 6 2 3-27-5-21-4-1-1v-22l3-13z" fill="#F4D59A"/>
<path transform="translate(813,861)" d="m0 0h2v2l-52 11-68 16-32 8-50 14-37 12-42 16-29 12-33 15-19 9-13 7-16 9-11 6-12 7-23 14-45 30-2-1 18-13 15-10 22-14 19-12 14-8 23-13 40-20 27-12 34-14 40-15 31-10 47-13 40-10 74-16z" fill="#E8AE51"/>
<path transform="translate(889,860)" d="m0 0h9l16 3 1 4-2 7-1 8v16l-27-5-29-6-1-2 14-8 9-7h2v-3l4-1z" fill="#F4D69A"/>
<path transform="translate(798,849)" d="m0 0 4 1-1 1-95 12-55 8-98 15-48 9-36 8-40 10-36 11-33 11-41 16-26 11-6 3-3-1 28-13 40-16 28-10 30-10 36-10 36-9 48-10 35-6 99-15 79-10z" fill="#E9AC4C"/>
<path transform="translate(7,1200)" d="m0 0h4v4l4 1v3h2l1 2 2-1 2 2-1 4h2v-2l3 1-3 3-5 1 3 2h5l1 7 2 2-4 6h-1v-6l-3-1 1-3-4-1-3-3-2 4h-2v2h3v-2l3-1-2 5 5-1v2h-3l1 6-3 2 4 1v2h-2l-1 6 6 1 1 4-3 4h3v3h3v2h2l-1 2-3-1v4l-2 2 2 2h-4l-2-1-1 2-5-1 1-8h-3v-2l4-2 1-2-5 1-1-2 2-5 2-4-5 1-1 8-5 2v3l4-1v4h3l-1 3-3-1v2h2l3 5 2 4-3 4h-9v-73l6-3-1-1 2-1z" fill="#547366"/>
<path transform="translate(23,1236)" d="m0 0 6 1-1 5h3l1 9h3v3l2 1v3l-2 1h3l2 4 6 2 2-1h-4l1-5h4v2h7l1-2h3v2h-2v2h-2v2l-6-1 1 2 3 1-4 4h-2v2l9-1 1 1 7-3v3l-5 2-2 5h-49l2-5-4-5v-3h-2v-2h3l1-2h-3v-4l-4 1v-3l5-2 1-8 5-1-1 4-2 6h5l-1 3-4 1v2h3v6l-1 2h5 4l1-1v-3h2v-4l4-1h-2v-2h-3l-1-2-2 1-1-3 3-1v-6l-6-1 2-5 2-1v-3z" fill="#E06F12"/>
<path transform="translate(1259,806)" d="m0 0 7 1 1 19v82l-1 20-5-3 1-2-6-1 2-2v-3l-6-4v-2l4 1 3-3 3 2 1-3h2l-2-4h2l-1-2-4 1-3-5 1-1-2-1 1-2 1-4-2-1 2-5h2l1-4 2 2 1 4 1-10h-4l-2-5-4-2v-2l-1 2h-2v-2h-2l-2 6-1-2h-3l1-5 4-1-1-2v-1l-2-2 5-1h7l-1-7h-2l1 4-6-1v-2h-6l-2-2 2-3 4-2 1-3h2l-1 4 2 2-1 1h3l1-2v3h5l-1-2 2-1-2-1v-2h-2l1-5-4-2 3-4 1-3h-2l-2-5h2v-2l-4 1-7-2-3-2 5-1v-2l3-1 2-1 1-4 4 1 5-2-2-1v-2l-2-1z" fill="#517367"/>
<path transform="translate(486,815)" d="m0 0h76l46 3 45 5 83 11v2l20 1 44 4 3 2h-13l-55-4-44-2v-1l16-1 5-1-64-8-48-5-51-3h-66l-49 3-31 3-24 3-18 3-1-2 15-3 29-4 32-3z" fill="#E9AE51"/>
<path transform="translate(1264,521)" d="m0 0h1l1 16v107l-2 2 1 1v5l-6 1-1-2 1-5h-2l1-5-2-1-3-1-2-2v-5l2-4h3v-4h4v-7l-2-1 1-1-1-6 1-3h2l-1-6 1-2v-7l-1-4 2-5h-2l-2-5 4-4-2-3 3-3v-7l-4-1v10h-2l-3-3-2-4v-4l-3-1 1-13 1-5h2v3l2 1v4l3 1v2h2l1-5h3l-1-10-2-2 3-1z" fill="#517367"/>
<path transform="translate(130,1250)" d="m0 0 4 5 2 4v3l4 1-1 5 3 1v2l3 1v-6h2v-2l-5-2v-6l1-2-2-1 3-1 4 1-1 5 3 7-1 4h3v-7l6 4 4 8v4l-4 2h-11v-4l-6 2-12-3-5 3-8-1h-3v-2l-4-2 1-3 2-2h-2v-4l-2-2 4-1v3l3-1-6-4v-2l3-2 2-1 1-3h2v2l7 1v-2h5z" fill="#3C3222"/>
<path transform="translate(798,849)" d="m0 0 4 1-1 1-95 12-55 8-91 14-3-1 1-3 106-16 79-10z" fill="#E9AC4B"/>
<path transform="translate(813,861)" d="m0 0h2v2l-52 11-68 16-32 8-43 12-4-1v-2l19-6 49-13 53-12 49-10z" fill="#E8AD4E"/>
<path transform="translate(1261,712)" d="m0 0 5 2v60l-4-2-1-3-5-1 2-6 5-2-2-4-3 2-4-1-1-5 3-1-5-1-2-3v-8l2-2 7-2-1-3h2l-1-7 2-1v-9z" fill="#517266"/>
<path transform="translate(1251,1102)" d="m0 0 5 2 2-2 4 1v2l3 1v5h-3l-1 7 1 3-1 3-1-1-1 2h3v2l4 1v-2h-3v-7l4 2v14l-3 2-4 1 3 1 1 9 4 2-1 2-6-2h-2l-1-5-6-1-2-6v-4l2-4 2-1 2-4-6-1 1-5 3-4-1-1v-2h-3l-1-4z" fill="#517266"/>
<path transform="translate(651,834)" d="m0 0h57l-1 2-16 1-47 1-52 2-38 3-31 3 1-3 21-3 36-3 40-2z" fill="#EAA83C"/>
<path transform="translate(1071,892)" d="m0 0 10 1 3 2-3 11-1 9v16l-9-1-5-2v-17l2-12z" fill="#F4D599"/>
<path transform="translate(420,295)" d="m0 0 5 2 15 10 11 8 18 14 14 12 9 7 26 26v2h2l9 11 8 9 5 7-1 2-11-13-7-8-14-14v-2l-4-2-10-10-8-7-12-10-10-8-32-24-13-9z" fill="#445A51"/>
<path transform="translate(1245,772)" d="m0 0h5v3l7 1 3 1 1-3 3 1 2 3 1 25-1 3-17-4-11-3 3-2 7 1h7l4 1v2h2v-2h2l-1-2v-6h-4l-2-6v2h-3l-1 2h-2l-2-2-1-2-7-3v-5l3-3h2z" fill="#517367"/>
<path transform="translate(486,815)" d="m0 0h76l9 1 1 2h-89l-49 3-31 3-24 3-18 3-1-2 15-3 29-4 32-3z" fill="#EAB159"/>
<path transform="translate(1122,811)" d="m0 0h24l3 3-60 3-44 5-42 6h-7l3-2 65-10 27-3z" fill="#EBC06D"/>
<path transform="translate(64,1258)" d="m0 0h3v3l8-2 1 2h-3l1 4v-3h4v2l-2 1-1 13-4 1v-2h-2v2l-2 1h-9l1-5 5-3-4 1h-2v2l-2-1 1-2h-3l-1 3v-3l-5 1v-2l5-2v-2h-3v-3h2l1-2v3h3v-2h2v-2l5-1h1z" fill="#7C734F"/>
<path transform="translate(1130,763)" d="m0 0h14l2 2-44 5-29 6-31 8-35 11-3-1 19-7 33-10 32-8 23-4z" fill="#ECC373"/>
<path transform="translate(1264,426)" d="m0 0h1l1 15v48l-1 31-2-4h-2l-1-7v-3l3 1-1-2h-4v-9l-2-1v-3l-3-1 1-4 2 2 4-8 4-1-1-4 1-2-4-2 2-4 1 2z" fill="#517367"/>
<path transform="translate(1122,789)" d="m0 0h22v1h-8v2l-48 4-39 6-40 9h-5l3-2 38-9 26-5 27-4z" fill="#EBC06E"/>
<path transform="translate(142,1252)" d="m0 0 6 1-1 5 3 7-1 4h3v-7l6 4 4 8v4l-4 2h-11v-4l-6 2-6-2-1-4 3-1 8 1v-6h2v-2l-5-2v-6l1-2-2-1z" fill="#DC7413"/>
<path transform="translate(11,1239)" d="m0 0 6 4-1 4 6 1 1 4-3 4h3v3h3v2h2l-1 2-3-1v4l-2 2 2 2h-4l-2-1-1 2-5-1 1-8h-3v-2l4-2 1-2-5 1-1-2 2-5 2-4-3-1-1-2-2-1z" fill="#547467"/>
<path transform="translate(3,1231)" d="m0 0h2l-1 3h-2l-1 8 5 1v7l2 1-1 4-5 2v3l4-1v4h3l-1 3-3-1v2h2l3 5 2 4-3 4h-9v-48z" fill="#4D6C60"/>
<path transform="translate(79,1256)" d="m0 0 3 1h-2v3h5l4-2h5l3 5v2l3-1-4-4h5v-2h3v2h3l-1 5h-2l1 5h-2l1 3-5 1-2-2 1-2-7-1-5 1h-3l1 5-3-1-2-4v-3l-2-1 6-1v-3l-5-1z" fill="#754C1F"/>
<path transform="translate(287,1269)" d="m0 0 2 3-1 3h2v-5l6-1 9 1 3 2v4h2v2l-3-1-1 3h-36l1-2 11-4 1-4 4 1z" fill="#D56D12"/>
<path transform="translate(428,359)" d="m0 0 10 2 36 12 18 8 15 8 14 10 12 11-1 2-11-10-17-11-16-8-19-8-40-14z" fill="#475F55"/>
<path transform="translate(921,865)" d="m0 0 8 1-4 18-1 16-7-1v-21l3-12z" fill="#ED750F"/>
<path transform="translate(441,979)" d="m0 0 3 1-9 6-14 7-16 10-9 5-21 13-42 28-2-1 18-13 15-10 22-14 19-12 14-8z" fill="#EBB560"/>
<path transform="translate(78,1261)" d="m0 0 7 1-2 1v2l-4 2 3 5 1 2v-4l8-2 7 2 1 4h-3v-2l-8 1-1 1 8-1 1 6-1 1h-28l2-1v-2l3 1 2-2 1-13 3 1z" fill="#5E3F1E"/>
<path transform="translate(17,1212)" d="m0 0h5l-1 3h2v-2l3 1-3 3-5 1 3 2h5l1 7 2 2-4 6h-1v-6l-3-1 1-3-4-1-3-3-2 4h-2v2h3v-2l3-1-2 5 5-1v2h-3l1 6-3 2 4 1v2h-2v2l-4-1-2-2-3-1v-3l8-1v-2l-4-1v2h-2l-2-4v-5l5-6h2l2-5z" fill="#ED790F"/>
<path transform="translate(1264,653)" d="m0 0 2 3v55l-1-2-4-1 3-2h-2l-1-4 2-1-1-2 1-1-1-5v-5h-5l3-3 1-4-2-2 1-6h3l1-2h-2v-3l-2-1 1-3 2-1-2-4-1-5z" fill="#517367"/>
<path transform="translate(398,919)" d="m0 0m-4 1h4v2l-38 13-41 16-26 11-6 3-3-1 28-13 40-16 28-10z" fill="#EAB45C"/>
<path transform="translate(7,1215)" d="m0 0h2l2 5-4-1v2l3 1-1 8 1 4h2v-2l4 1v2l-8 1 1 5 1 1 1 3-1 2h-2v3h-2l-1-5 1-2-5-1 1-8 3-3-5 1v-6l2-2-1-2 3-2 1-3h2z" fill="#6F7658"/>
<path transform="translate(1267,1078)" d="m0 0h1v72l-5-2v-9l-3 1v-3l6-2v-14l-3-2v7h3v2l-4-1v-2h-3l2-6-1-4 2-4h4v-17l-1-2h2l-1-3z" fill="#557B6F"/>
<path transform="translate(518,843)" d="m0 0h6l-1 3-49 7-31 5-1-3 47-8z" fill="#E9AB4A"/>
<path transform="translate(1259,806)" d="m0 0 7 1 1 17-5 1-8-2h-9l-3-2 5-1v-2l3-1 2-1 1-4 4 1 5-2-2-1v-2l-2-1z" fill="#517367"/>
<path transform="translate(116,1152)" d="m0 0 7 5 2 5h-2v2l4-1 3 1 1 9h-2l-2-3-1 3 2 1v11l-4-1-1-4 1-4 2 1v-2h-3l-1-2-4-1-4-4-1 2-1-5 2-1v3l4-2h3v-2l-3-1v-2h-3v-2l2-1v-2l-2-2z" fill="#E28417"/>
<path transform="translate(571,816)" d="m0 0h10l37 3 27 3v2l-5 1-40-4-32-2z" fill="#E9AA48"/>
<path transform="translate(1143,81)" d="m0 0h2v4l1-2 3 1 2 2 4 1v3h2l1 3-4 2h-2l-3 3h-5l-1 2-3-4-1-5v-7l2-1z" fill="#D9AB57"/>
<path transform="translate(645,823)" d="m0 0 16 1 59 8 4 2h-12l-64-8-6-1z" fill="#E9AF4F"/>
<path transform="translate(798,849)" d="m0 0 4 1-1 1-80 10h-10l1-2 31-4z" fill="#EAAC50"/>
<path transform="translate(710,859)" d="m0 0 4 2v1l-57 8-8 1-1-3 16-3z" fill="#E9AA49"/>
<path transform="translate(130,1250)" d="m0 0 4 5 2 4v3l4 1v3l-5 3-1-3h-2l-2-2 1-2h-3l1 3-2 3-1-3v-5l-5-1h-1-2l1-4-6 1-1-2h2l1-3h2v2l7 1v-2h5z" fill="#C86A14"/>
<path transform="translate(1175,790)" d="m0 0 15 1 34 5 25 5 3 2-9-1-33-5-36-4z" fill="#E8BA60"/>
<path transform="translate(142,1252)" d="m0 0 6 1-1 5 3 7-2 6 2 5v4h-3v-4l-6 2-6-2-1-4 3-1 8 1v-6h2v-2l-5-2v-6l1-2-2-1z" fill="#ED810E"/>
<path transform="translate(651,834)" d="m0 0h57l-1 2-16 1h-35l-5-2z" fill="#ECAA28"/>
<path transform="translate(216,1270)" d="m0 0 6 2 4 3 11 3 2 2h-29l-1-3h4l-1-4h5z" fill="#EB790F"/>
<path transform="translate(353,877)" d="m0 0h4v2l-29 9-29 10-18 7-3-1 14-6 36-13z" fill="#EBB45D"/>
<path transform="translate(128,1274)" d="m0 0 15 3 4-1v4h-39l-1-2 4-1v-2h2l2 2 5-1 4 1 4-1z" fill="#E18215"/>
<path transform="translate(4,1259)" d="m0 0h2v4h3l-1 3-3-1v2h2l3 5 2 4-3 4h-9v-9l4-1-1-7-2-1z" fill="#4F7064"/>
<path transform="translate(608,625)" d="m0 0h10l6 17v2l-4-1-7-8-5-8z" fill="#F2D192"/>
<path transform="translate(90,1258)" d="m0 0 5 1 2 6 3-1-4-4h5v-2h3v2h3l-1 5h-2l1 5h-2l1 3-5 1-2-2 1-2-7-1 3-5-1-2 1-2-4-1z" fill="#D37712"/>
<path transform="translate(1256,985)" d="m0 0h6v5l-2 4v2h2l-1 2-4-1v2l-2-1 1-2h-4v-2h-2v2h-2l1-4-6-1-1-4h6l1 1 2-2 4 1z" fill="#557B6F"/>
<path transform="translate(1169,762)" d="m0 0h15l33 3 25 4v1l-14-1-32-3-20-1-7-2z" fill="#EABE6A"/>
<path transform="translate(450,904)" d="m0 0 2 1-1 2-42 12-11 3 1-3 21-7z" fill="#E8AF51"/>
<path transform="translate(861,677)" d="m0 0 6 1 1 2-5 1 2 2h2v6l-5 3-2 2-4-1 3-5-5-1 1-4-1-3h3v-2z" fill="#866739"/>
<path transform="translate(15,1220)" d="m0 0 3 2v2h5l-1 4h3v6l1 2 3 1h-6l-3 1v3l2 1-5 1v-2h2v-2h-5l3-4v-5h3v-2l-6 2 2-5h-2v2h-3v-2h2l-1-3z" fill="#576E5F"/>
<path transform="translate(813,861)" d="m0 0h2v2l-52 11-10 2 1-3 16-4z" fill="#E9AA4D"/>
<path transform="translate(1122,811)" d="m0 0h24l3 3-24 1h-19l-1-3z" fill="#EEC67A"/>
<path transform="translate(64,1258)" d="m0 0h3v3l8-2 1 2h-3l1 4v-3h4v2l-2 1-1 7-1-2h-3v-3l-2 5-2-3-3-3-5-1v-3h2v-2h3z" fill="#ED7310"/>
<path transform="translate(1249,918)" d="m0 0 4 2 13 10 1 3-2 3h-2v-3h-2v-2h2v-2l-8 1v2l-5 1-3-1-1-6 3-1h2l1-3-3-2z" fill="#517266"/>
<path transform="translate(1051,818)" d="m0 0h7l1 2-56 8h-7l3-2z" fill="#F0CC86"/>
<path transform="translate(1059,797)" d="m0 0h7l-1 2-35 7-21 5h-5l3-2 38-9z" fill="#F0CC87"/>
<path transform="translate(58,1261)" d="m0 0 2 1v3l6 1-4 2-1 2 3-1v2l-6 2v2l-2-1 1-2h-3l-1 3v-3l-5 1v-2l5-2v-2h-3v-3h2l1-2v3h3v-2h2z" fill="#6F6C4E"/>
<path transform="translate(1186,813)" d="m0 0 18 1 26 3 14 2v1h-9l-30-3-17-1-2-1z" fill="#E9BC65"/>
<path transform="translate(244,1110)" d="m0 0h3l4 1v3h-2l-2 5h-2l1 3h-9v3l-5 2-3-5h6l1-2h6l1-3h-2l-1 2-2-5h7z" fill="#A98449"/>
<path transform="translate(929,385)" d="m0 0 1 3-12 11-17 17 1-4 7-8 9-10z" fill="#282723"/>
<path transform="translate(916,866)" d="m0 0h2l-3 23h-2l-1 8h-1v-15l2-12 1-3z" fill="#41554C"/>
<path transform="translate(476,849)" d="m0 0 3 1 1 2-37 6-1-3z" fill="#E9A744"/>
<path transform="translate(1052,778)" d="m0 0h4v2l-43 13-9 2 2-2 36-12z" fill="#EFCA81"/>
<path transform="translate(1088,769)" d="m0 0h6l-3 3-30 7-5 1v-3z" fill="#EDC476"/>
<path transform="translate(10,1246)" d="m0 0h3l-1 4-2 6h5l-1 3-4 1-1 3h-3v-4l-4 1v-3l5-2 1-8z" fill="#ED7911"/>
<path transform="translate(1257,768)" d="m0 0 5 1 4 5-1 4-1-3h-3l-1 2-11-1-1-3 6-1-4-2z" fill="#53786C"/>
<path transform="translate(1070,891)" d="m0 0h6v1h-5l-3 12-1 7v17l11 3v1l-9-1-5-2v-12l3-19z" fill="#4D6C61"/>
<path transform="translate(1258,909)" d="m0 0 4 2-1 2 2 2h-3l1 5 3-1 2 2v7l-5-3 1-2-6-1 2-2v-3l-6-4v-2l4 1z" fill="#517367"/>
<path transform="translate(1247,859)" d="m0 0h9v3l2 5h-3l-1 2h-2v-2h-2l-2 6-1-2h-3l1-5 4-1-1-2v-1l-2-2z" fill="#517266"/>
<path transform="translate(1260,865)" d="m0 0h4v2h-2v2l4-3 1 13-1 7h-1v-10h-4l-2-5-4-2z" fill="#517266"/>
<path transform="translate(78,1261)" d="m0 0 7 1-2 1v2l-4 2 3 5-1 5-4-1-2-1v-12l3 1z" fill="#433B2C"/>
<path transform="translate(1266,1105)" d="m0 0h1v15l-4-1v7h3v2l-4-1v-2h-3l2-6-1-4 2-4h4z" fill="#54796D"/>
<path transform="translate(1159,908)" d="m0 0h5l-1 5-4 4h-2v-3h-3l-1 4-5-4v-3l6-2 3 3h3z" fill="#EE880D"/>
<path transform="translate(367,1023)" d="m0 0 3 1-22 15-15 10-2-1 18-13 15-10z" fill="#EBB661"/>
<path transform="translate(1266,910)" d="m0 0h1v22l-2-1-5-5-8-6-1-2h3l4-2 1 4v2l4 1v3l2 1z" fill="#557C70"/>
<path transform="translate(389,867)" d="m0 0m-4 1h4v2l-32 9v-3z" fill="#E9A94C"/>
<path transform="translate(1249,843)" d="m0 0h2l-1 4 2 2-1 1h3l1-2 1 8-6-1v-2h-6l-2-2 2-3 4-2z" fill="#517266"/>
<path transform="translate(1264,653)" d="m0 0 2 3v19l-1-4h-3v-3l-2-1 1-3 2-1-2-4-1-5z" fill="#527569"/>
<path transform="translate(112,1155)" d="m0 0h3l-1 3-3-1 2 3v3l-2-1-1 4-4 2-3-6 3-6z" fill="#554932"/>
<path transform="translate(1247,822)" d="m0 0h7l13 3-3 5-5-1-1 2h-2l-2-5h2v-2l-4 1-5-2z" fill="#517367"/>
<path transform="translate(300,1135)" d="m0 0h2l3 4v-3l3 1 3 7 1 2-2 5-2-1v-2h-2l-5-9z" fill="#E69B37"/>
<path transform="translate(1252,901)" d="m0 0 2 2-1 4 3 1-1 2-5 2v-2h-2l1 3-3 1-2-2v-5l5-3 3-1z" fill="#517367"/>
<path transform="translate(1140)" d="m0 0h7l-3 9-3 6-1-4-2-7z" fill="#DE6E12"/>
<path transform="translate(4,1259)" d="m0 0h2v4h3l-1 3-3-1v2h2l3 5 2 4-3 2-1-2 1-3-6-1h-3l1-2h3l-1-7-2-1z" fill="#476056"/>
<path transform="translate(1177,268)" d="m0 0 2 2-7 16-5 8-3-1h2l-1-4h3l3-10v-2-2h3l1-6z" fill="#527569"/>
<path transform="translate(428,359)" d="m0 0 10 2 19 6-1 3-10-3-17-6z" fill="#40524A"/>
<path transform="translate(85,1262)" d="m0 0 4 4 1 4h-7l1 5-3-1-2-4v-3l-2-1 6-1v-2z" fill="#814F18"/>
<path transform="translate(397 1e3)" d="m0 0h2l-1 3-20 12-6 4-3-1 17-11z" fill="#EDC173"/>
<path transform="translate(1161,680)" d="m0 0h1l-1 13-6 25h-2v-6l3-8 1-9 2-5z" fill="#517468"/>
<path transform="translate(1250,986)" d="m0 0 6 2 2 1-3 4-5 1v2h-2l1-4-6-1-1-4h6l1 1z" fill="#517266"/>
<path transform="translate(21,1220)" d="m0 0h5l1 7 2 2-4 6h-1v-6l-3-1 1-3-4-2z" fill="#E67412"/>
<path transform="translate(135,1276)" d="m0 0 8 1 4-1v4h-23l1-2 8-1v2h2z" fill="#3E3728"/>
<path transform="translate(1164,87)" d="m0 0 3 1v2l6 1 1 7h-2v2h-2l-1-4h-4l-1-3v-2l1-1z" fill="#959566"/>
<path transform="translate(3,1231)" d="m0 0h2l-1 3h-2l-1 8 4 1-3 3 1 7-2 5h-1v-26z" fill="#EA8A17"/>
<path transform="translate(413,861)" d="m0 0 2 1v2l-26 6 1-3 15-4z" fill="#E9A74A"/>
<path transform="translate(1254,817)" d="m0 0 1 2h-2v2l4-2 5-2h3v2h-3l3 1-1 5-13-3 1-4z" fill="#5A7E6F"/>
<path transform="translate(17,1212)" d="m0 0h5l-1 3h2v-2l3 1-3 3-5 1 2 4h-3-3l-1 3-3-1 2-4 3-1 2-5z" fill="#EE8A0F"/>
<path transform="translate(114,1168)" d="m0 0 4 2 1 6-4 2v-2l-8-1 3-2v-3h4z" fill="#715129"/>
<path transform="translate(15,1220)" d="m0 0 3 2v2h5l-1 4h3v2h-5v-2l-6 2 2-5h-2v2h-3v-2h2l-1-3z" fill="#4F6F64"/>
<path transform="translate(450,904)" d="m0 0 2 1-1 2-22 6v-3l13-4z" fill="#E8AF50"/>
<path transform="translate(142,1252)" d="m0 0 6 1-1 5 3 7h-2l-1 2v-3l-5-2v-6l1-2-2-1z" fill="#E98B18"/>
<path transform="translate(123,1206)" d="m0 0h2v2l5 1 4-1-1 4h2v3l3 1h-3l-1 3-3-4v-3l-4 1h-3z" fill="#EE9411"/>
<path transform="translate(112,1256)" d="m0 0 4 2 2 4 4 2-3 1v2h-4l-7-4 4-2v3l3-1-6-4v-2z" fill="#ED850F"/>
<path transform="translate(875,866)" d="m0 0h2l1 5-11 8-1-2-3 1v-2l3-1 5-5 4-2z" fill="#3F5249"/>
<path transform="translate(1175,301)" d="m0 0 3 1v2h2v2l3 1v2l-2 1v2h-2v3h-2v-2h-2l2-8-3-1z" fill="#54796D"/>
<path transform="translate(115,1272)" d="m0 0 5 2 7 1v-2l7-1 2 3-3 1-4-1-5 3-8-1h-3v-2l2-1z" fill="#2B2923"/>
<path transform="translate(1220,856)" d="m0 0h3l-2 4-1 3h-2l-2 4-1 3-4 2-2 2 1-6 4-3 1-3h2l1-4h2z" fill="#507064"/>
<path transform="translate(993,615)" d="m0 0h3l3 18h-2l-6-15v-2z" fill="#F5D79D"/>
<path transform="translate(64,1258)" d="m0 0h3v3h2l1 4-7 1-4-1v-3h2v-2h3z" fill="#B77430"/>
<path transform="translate(324,1099)" d="m0 0 3 1 3 10 2 13-4-4v-11l-3-1-1-6z" fill="#EBA241"/>
<path transform="translate(1243,954)" d="m0 0h10l1 4-2 2-8 1-2-4 2-1z" fill="#517266"/>
<path transform="translate(11,1239)" d="m0 0 6 4-1 7-6 3 2-4 1-3-3-1-1-2-2-1z" fill="#4B685E"/>
<path transform="translate(557,839)" d="m0 0h16v2l-8 1h-15l1-2z" fill="#E8B150"/>
<path transform="translate(398,919)" d="m0 0m-4 1h4v2l-21 7-2-1 5-3z" fill="#E9B156"/>
<path transform="translate(581,837)" d="m0 0h9l2 3-19 1v-2h-5v-1z" fill="#EAA23A"/>
<path transform="translate(1169,762)" d="m0 0h15l8 1-1 2h-15l-7-2z" fill="#F0CB84"/>
<path transform="translate(510,393)" d="m0 0 4 1 13 10 6 6-1 2-11-10-11-7z" fill="#41554C"/>
<path transform="translate(64,1272)" d="m0 0 2 1 1 5-1 2h-8l1-5z" fill="#806F46"/>
<path transform="translate(441,979)" d="m0 0 3 1-9 6-8 4h-3v-2z" fill="#EDBA6B"/>
<path transform="translate(1175,790)" d="m0 0 15 1 2 2-1 1h-10l-7-1z" fill="#ECC170"/>
<path transform="translate(1123,789)" d="m0 0h21v1h-8v2h-15z" fill="#EDC476"/>
<path transform="translate(1255,852)" d="m0 0h2v4l2 1v3h-11v-2l-3 1-1-2 10-2 2 1z" fill="#547A6E"/>
<path transform="translate(1130,763)" d="m0 0h14l2 2-9 1h-12l-2-2z" fill="#F0CC87"/>
<path transform="translate(1265,554)" d="m0 0h1v21l-3 1-3-6 4-4z" fill="#53766A"/>
<path transform="translate(9,1224)" d="m0 0h2v3h3v-2l3-1-2 7-3 1v2h-2l-2-4v-5z" fill="#E9750F"/>
<path transform="translate(131,1257)" d="m0 0h4l1 5 4 1v3l-5 3-1-3h-2l-2-2 3-3-3-3z" fill="#EE8A10"/>
<path transform="translate(114,1251)" d="m0 0h3v2l7 2 5 4-3 1-5-1h-1-2l1-4-6 1-1-2h2z" fill="#ED8613"/>
<path transform="translate(0,1209)" d="m0 0 8 1-2 5h-2v4h-2v-3h-2z" fill="#A27F41"/>
<path transform="translate(456,368)" d="m0 0 6 1 12 4-2 3-15-5z" fill="#465E54"/>
<path transform="translate(1229,113)" d="m0 0 1 3-4 4h-2l-2 4-5 5v-3l1-4 7-5v-2z" fill="#517266"/>
<path transform="translate(122,1190)" d="m0 0 3 1v2h-2v3l2 1-2 2v-2h-2v2l-4 1-1-4 5-5z" fill="#D6821D"/>
<path transform="translate(1205,867)" d="m0 0h2v2l2 1-5 1v2h2l1 4-3 1v-2l-4 2 1-6z" fill="#507064"/>
<path transform="translate(875,682)" d="m0 0h2v5l-3 1-3 3-6 2v-3l5-2-2-1v-2z" fill="#C58E3A"/>
<path transform="translate(114,1255)" d="m0 0h5l-1 4h2v-2l2 1 1 6-6-2-1-4-3-1z" fill="#3B3022"/>
<path transform="translate(1119)" d="m0 0h15l-3 1-1 2h-2-4v2l2 1-3 1-3-5-2 1z" fill="#E37515"/>
<path transform="translate(370,1068)" d="m0 0 3 1 1 4 2 2-4 2-4-1 1-7z" fill="#E88E18"/>
<path transform="translate(1170,913)" d="m0 0 4 2 1 3 4 2-6 2v-2l-4-2z" fill="#E5880F"/>
<path transform="translate(1245,125)" d="m0 0h3v5l-1 4-5-1-3 2v-3z" fill="#517266"/>
<path transform="translate(657,866)" d="m0 0h5l2 3-15 2-1-3z" fill="#EAA73F"/>
<path transform="translate(454,853)" d="m0 0h6v2l-17 3-1-3z" fill="#E9A949"/>
<path transform="translate(1169,812)" d="m0 0h11l5 1v2h-15z" fill="#EFC981"/>
<path transform="translate(1240,945)" d="m0 0h5l3 8h-7v-5z" fill="#517266"/>
<path transform="translate(374,927)" d="m0 0 2 1-1 2-18 6v-3z" fill="#EAAC53"/>
<path transform="translate(1180,923)" d="m0 0 3 1v2h2l1-3v8l-7-2-1-4z" fill="#ED8613"/>
<path transform="translate(1151,919)" d="m0 0 4 1v5l-6 1-1-5z" fill="#EE840D"/>
<path transform="translate(1120,764)" d="m0 0 5 1 1 2-17 1 2-3z" fill="#E9BB63"/>
<path transform="translate(1160,931)" d="m0 0 4 2-1 4-6 1-2-4z" fill="#ED7F0E"/>
<path transform="translate(1258,925)" d="m0 0 4 2 5 5-2 4h-2v-3h-2v-2h2v-2h-8z" fill="#517266"/>
<path transform="translate(1139,908)" d="m0 0h3l2 3v5l-4 1-1-4 1-2h-3v-2z" fill="#EE8E0E"/>
<path transform="translate(651,834)" d="m0 0h14l2 1v2h-11l-5-2z" fill="#EE9E19"/>
<path transform="translate(1059,797)" d="m0 0h7l-1 2-16 3-3-1 8-3z" fill="#F1CE8B"/>
<path transform="translate(910,374)" d="m0 0h2l-3 9-4 8-3 1 2-6z" fill="#2A2A26"/>
<path transform="translate(1252,199)" d="m0 0 3 1 1 3h-2v2l2 1-4 2h-2l-1-4-2-2z" fill="#517266"/>
<path transform="translate(998,1273)" d="m0 0 5 1 1 2-2 2h-3l-1-2h-2l1 3h-2l-2-2-4 1 5-4z" fill="#53776B"/>
<path transform="translate(272,1214)" d="m0 0 7 1-1 2-6 2v-2h-3v2l-3 1v-2l-2-1 1-2h6z" fill="#EC9823"/>
<path transform="translate(1249,918)" d="m0 0 4 2 5 4v2l-5 2h-3l2-6-3-2z" fill="#53776B"/>
<path transform="translate(1248,910)" d="m0 0 4 1v2l4 2-1 5-4-2v-3h-4z" fill="#54796D"/>
<path transform="translate(1240,802)" d="m0 0h15l9 3v1l-6 1v-2h-12l-6-2z" fill="#7D8A67"/>
<path transform="translate(127,1255)" d="m0 0 3 1v3h4l1 4-7-1 1 3-2 3-1-3 1-6h2z" fill="#D87B14"/>
<path transform="translate(301,1111)" d="m0 0 2 1 2 5-1 4-5 1-1-5h2v-2h2z" fill="#D29541"/>
<path transform="translate(116,1152)" d="m0 0 7 5 1 3-6 2v-2h-3v-2l2-1v-2l-2-2z" fill="#ED941B"/>
<path transform="translate(1052,778)" d="m0 0h4v2l-18 5 1-3z" fill="#F0CC87"/>
<path transform="translate(115,469)" d="m0 0h2l4 16-2 2-3-10z" fill="#465F55"/>
<path transform="translate(115,1269)" d="m0 0 5 3 13-1v2h-6v2h-7l-5-3z" fill="#ED8E18"/>
<path transform="translate(1203,121)" d="m0 0h2v3l-11 7h-2l1-3 4-3v-2l3 1z" fill="#517266"/>
<path transform="translate(88,1272)" d="m0 0h8l2 2 2 1v4h-2v-2l-5-1 2-1v-2l-5 2-4-1z" fill="#ED8013"/>
<path transform="translate(141,1242)" d="m0 0h2l2 5h-2v3l-5-1-3-4h4z" fill="#E78A19"/>
<path transform="translate(1256,985)" d="m0 0h6v5l-3 2h-3v-3l-1-2z" fill="#54796D"/>
<path transform="translate(1051,818)" d="m0 0h7l1 2-18 2 3-1v-2z" fill="#EFC981"/>
<path transform="translate(1206,161)" d="m0 0h4l3 2h2l-1 3-3 1-1 4-4-9z" fill="#517367"/>
<path transform="translate(1150,133)" d="m0 0h2l2 6v6l-1-3-3 3h-2l1-5h2z" fill="#527468"/>
<path transform="translate(135,1271)" d="m0 0h7l2 1-1 4-4-1-4 1-1-4z" fill="#B36314"/>
<path transform="translate(101,1258)" d="m0 0h3v2h3v2l-4 2-7-3v-1h5z" fill="#BE7116"/>
<path transform="translate(1266,1176)" d="m0 0 2 2v15l-2-2v-7l-4-4 3-1z" fill="#517266"/>
<path transform="translate(112,1155)" d="m0 0h3l-1 3-3-1 2 3v3l-2-1-4-1v-2l-1-3z" fill="#ED8812"/>
<path transform="translate(718,858)" d="m0 0h9v2l-6 1h-10l1-2z" fill="#E8AF53"/>
<path transform="translate(545,840)" d="m0 0h6l3 3-12 1v-1l-6-1v-1z" fill="#EC9D2B"/>
<path transform="translate(724,833)" d="m0 0 11 1v2h-16l2-2z" fill="#D4852C"/>
<path transform="translate(706,831)" d="m0 0 14 1 4 2h-12l-7-1z" fill="#E9A345"/>
<path transform="translate(1264,653)" d="m0 0 2 3v5h-3l-2-2-1-5z" fill="#517367"/>
<path transform="translate(1247,251)" d="m0 0 4 1 1 4-4 4h-2v-7z" fill="#517266"/>
<path transform="translate(1264,190)" d="m0 0h1l1 15-2 3-1-7 1-2-2-1-1-3 1-3h2z" fill="#517266"/>
<path transform="translate(360,1204)" d="m0 0v3l3 1h2v2l-6 1 1 4-3-1v-8z" fill="#C6974E"/>
<path transform="translate(410,915)" d="m0 0 2 1v2l-14 4 1-3z" fill="#E9A749"/>
<path transform="translate(1253,861)" d="m0 0h8l3 4-6 2-3-3 1-2z" fill="#557C70"/>
<path transform="translate(893,853)" d="m0 0 4 2-3 1-2 2v-2h-2v3h5v1h-6v2h-3l1-4h2v-2l-2-1h6z" fill="#506A5D"/>
<path transform="translate(1186,813)" d="m0 0h8l6 1-1 2h-11l-2-1z" fill="#EABD67"/>
<path transform="translate(1261,712)" d="m0 0 5 2-1 5-3 2-2-3z" fill="#527569"/>
<path transform="translate(1177,268)" d="m0 0 2 2-4 10-3-1-1-4h3l1-6z" fill="#517367"/>
<path transform="translate(279,1275)" d="m0 0m-2 1 3 1 1 3h-11l1-2zm4 1 2 2h-2z" fill="#ED790F"/>
<path transform="translate(147,1268)" d="m0 0 3 2 1 4 1 3 4 1-3 2-3-1v-2l-2-2z" fill="#2D312C"/>
<path transform="translate(3,1271)" d="m0 0 4 1 2 1-1 3h-8l1-4z" fill="#ED8513"/>
<path transform="translate(1266,933)" d="m0 0h1v8l-4 1-2 2 1-7h3l-1-3z" fill="#53776B"/>
<path transform="translate(1260,912)" d="m0 0h5v8l-4 1-1-1v-5z" fill="#567D71"/>
<path transform="translate(1137,765)" d="m0 0h8v8h-2v-6h-10z" fill="#52766A"/>
<path transform="translate(1264,376)" d="m0 0 2 1-1 8-5-2v-5z" fill="#657F6D"/>
<path transform="translate(1264,286)" d="m0 0h1v17h-1l-1-7-4-2 1-2 3-2z" fill="#517266"/>
<path transform="translate(1120,1)" d="m0 0 2 2 1 3 2 2-2 3-4-2-1-4z" fill="#616C57"/>
<path transform="translate(85,1262)" d="m0 0 4 4 1 4-4-2-2-2-2 2-5-1 2-2h4v-2z" fill="#ED790F"/>
<path transform="translate(1267,1153)" d="m0 0h1l1 18h-2l-1-6h-2l2-10z" fill="#517367"/>
<path transform="translate(1261,1075)" d="m0 0h2v2h2l1-2-1 5v3l-1 2h-2z" fill="#557C70"/>
<path transform="translate(1153,941)" d="m0 0 6 3v3l-7-1v-4z" fill="#ED790F"/>
<path transform="translate(389,867)" d="m0 0m-4 1h4v2l-10 3-4-1 6-3z" fill="#E8AF52"/>
<path transform="translate(1064,816)" d="m0 0 7 1-2 2-10 1-2-3z" fill="#EABD66"/>
<path transform="translate(1067,774)" d="m0 0h2v3l-13 3v-3z" fill="#EABF6A"/>
<path transform="translate(70,1273)" d="m0 0 4 1 1 4-4 1v-2h-2v2l-3 1v-4h4z" fill="#476056"/>
<path transform="translate(71,1266)" d="m0 0 1 2-1 2h3l1 5-5-2-1-4zm-2 7 1 3-3-1z" fill="#81784F"/>
<path transform="translate(0,1260)" d="m0 0h2l2 10-4 1z" fill="#E78011"/>
<path transform="translate(17,1212)" d="m0 0h5l-1 3h2v-2l3 1-3 3-6 1v-3z" fill="#ED8210"/>
<path transform="translate(104,1190)" d="m0 0h13v3h-4l-9-1z" fill="#EC8E20"/>
<path transform="translate(111,1275)" d="m0 0h2l2 2 2 1v2h-9l-1-2 4-1z" fill="#CB7816"/>
<path transform="translate(4,1259)" d="m0 0h2v4h3l-1 3h-5v-3l-2-1z" fill="#4C6A5F"/>
<path transform="translate(333,1091)" d="m0 0h3l2 7-5-1h-3l2-3z" fill="#E49431"/>
<path transform="translate(931,807)" d="m0 0 4 1-5 4-6 1 1-3z" fill="#EE9A13"/>
<path transform="translate(1198,146)" d="m0 0h2v3h2l5 10h-3l-6-11z" fill="#527468"/>
<path transform="translate(119,1158)" d="m0 0 6 4h-2v2h2v3l-4-1v-3h-2z" fill="#DF7F0F"/>
<path transform="translate(305,1136)" d="m0 0 3 1 2 5v3l-4-1-1-7z" fill="#8F6633"/>
<path transform="translate(1137,934)" d="m0 0 5 1 4 5h-6l-3-4z" fill="#EE8A0D"/>
<path transform="translate(1139,921)" d="m0 0 4 1-1 5-2 1-2-1v-5z" fill="#ED7F0E"/>
<path transform="translate(1162,918)" d="m0 0h3l1 4-3 2-1-3-5 2 1-3z" fill="#ED8111"/>
<path transform="translate(1256,916)" d="m0 0 3 1-1 4-1 2-4-2-2-3h3z" fill="#60806E"/>
<path transform="translate(1159,908)" d="m0 0h5l-1 5-5 4v-4l2-1z" fill="#ED8510"/>
<path transform="translate(1249,804)" d="m0 0h7l2 1-1 3h-2l-1 3-2-4z" fill="#517367"/>
<path transform="translate(860,767)" d="m0 0 3 1 2 5-2 1-7-2 1-2h3z" fill="#453929"/>
<path transform="translate(1250,648)" d="m0 0 4 1 1 5-2 1-5-3z" fill="#517266"/>
<path transform="translate(398,1229)" d="m0 0 4 1 1 5-4-1-3-2v-2z" fill="#DD8A2C"/>
<path transform="translate(15,1220)" d="m0 0 3 2v2l2 1h-6v2h-3v-2h2l-1-3z" fill="#486359"/>
<path transform="translate(132,1208)" d="m0 0h2l-1 4h2v3l3 1h-3l-1 3-3-4 1-2z" fill="#EDA225"/>
<path transform="translate(1131,920)" d="m0 0h2l2 6-5 1v-6z" fill="#EF990B"/>
<path transform="translate(397,865)" d="m0 0h4v2l-12 3 1-3z" fill="#E9AA4A"/>
<path transform="translate(734,856)" d="m0 0 4 1-1 2-10 1-1-3z" fill="#E9A442"/>
<path transform="translate(1072,815)" d="m0 0h9l-3 3h-7l-3-2z" fill="#EDC578"/>
<path transform="translate(1261,769)" d="m0 0 5 5-1 4-1-3-5-1-1-3z" fill="#557B6F"/>
<path transform="translate(41,1268)" d="m0 0 6 4v5l-6-1v-2h3l-4-5z" fill="#507267"/>
<path transform="translate(6,1251)" d="m0 0 1 4-5 2v3h-2l2-7z" fill="#4E6E63"/>
<path transform="translate(10,1246)" d="m0 0h3l-1 4-2 3h-3l1-6z" fill="#ED7C0E"/>
<path transform="translate(138,1239)" d="m0 0 4 2-3 5-5-2z" fill="#5F492A"/>
<path transform="translate(875,866)" d="m0 0h2l1 5-5 3-4-2 6-4z" fill="#4C6A5F"/>
<path transform="translate(1071,795)" d="m0 0h6l-4 3-8 1-1-3z" fill="#EDC375"/>
<path transform="translate(1192,763)" d="m0 0 12 1v2h-9l-4-2z" fill="#EDC375"/>
<path transform="translate(911,429)" d="m0 0h7l1 3 4 2-2 1-10-5z" fill="#ED9818"/>
<path transform="translate(1179,307)" d="m0 0 2 3v2h-2v3h-2v-2h-2l1-4z" fill="#527569"/>
<path transform="translate(1221,153)" d="m0 0h2l-2 4-2 3h-2l-1 3-2-2 2-3h2l2-4z" fill="#517266"/>
<path transform="translate(1255,111)" d="m0 0 3 4-3 3h-2l-1-6z" fill="#527468"/>
</svg>
